<?xml version="1.0" encoding="UTF-8"?>
<svg version="1.1" xmlns="http://www.w3.org/2000/svg" width="157" height="150">
<path d="M0 0 C51.81 0 103.62 0 157 0 C157 49.5 157 99 157 150 C105.19 150 53.38 150 0 150 C0 100.5 0 51 0 0 Z " fill="#F1F4F8" transform="translate(0,0)"/>
<path d="M0 0 C11.73328341 10.11732222 21.10745426 23.12099469 22.484375 39 C23.36850407 57.81657296 19.57986819 72.97834343 6.9921875 87.46484375 C-5.61957026 100.21411289 -19.02511842 105.20864364 -36.578125 105.3125 C-51.05789561 105.32180178 -60.70389969 102.50669565 -72.515625 94 C-73.15113281 93.55011719 -73.78664063 93.10023437 -74.44140625 92.63671875 C-86.2642299 83.42306997 -92.77105672 69.45304762 -95.515625 55 C-97.22654322 38.6679934 -93.64386393 23.44402022 -83.4453125 10.33984375 C-62.28298362 -14.10375215 -26.35921746 -20.95639649 0 0 Z " fill="#EFF1F5" transform="translate(108.515625,28)"/>
<path d="M0 0 C3.96 0 7.92 0 12 0 C12 45.21 12 90.42 12 137 C-30.9 137 -73.8 137 -118 137 C-118 132.71 -118 128.42 -118 124 C-79.06 124 -40.12 124 0 124 C0 83.08 0 42.16 0 0 Z " fill="#FFFFFF" transform="translate(135,13)"/>
<path d="M0 0 C11.73328341 10.11732222 21.10745426 23.12099469 22.484375 39 C23.36850407 57.81657296 19.57986819 72.97834343 6.9921875 87.46484375 C-5.61957026 100.21411289 -19.02511842 105.20864364 -36.578125 105.3125 C-51.05789561 105.32180178 -60.70389969 102.50669565 -72.515625 94 C-73.15113281 93.55011719 -73.78664063 93.10023437 -74.44140625 92.63671875 C-86.2642299 83.42306997 -92.77105672 69.45304762 -95.515625 55 C-97.22654322 38.6679934 -93.64386393 23.44402022 -83.4453125 10.33984375 C-62.28298362 -14.10375215 -26.35921746 -20.95639649 0 0 Z M-76.515625 16 C-85.51521899 29.05752715 -88.61035648 41.73721027 -85.953125 57.5625 C-82.41228134 70.66114543 -74.57287279 82.44912855 -63.015625 89.65234375 C-50.5271308 96.38442266 -38.22839938 99.4158009 -24.29443359 95.46411133 C-17.84657422 93.455083 -11.83891471 91.24471467 -6.515625 87 C-5.76925781 86.42507812 -5.02289063 85.85015625 -4.25390625 85.2578125 C5.38730305 77.32174269 11.07992257 66.22835809 13.484375 54 C14.5417946 38.2200459 11.2477558 25.69036282 1.296875 13.26953125 C-7.53214618 3.67087499 -19.667893 -2.53463697 -32.77734375 -3.37109375 C-50.29314653 -3.85323401 -65.20324058 2.26847023 -76.515625 16 Z " fill="#060606" transform="translate(108.515625,28)"/>
<path d="M0 0 C0.99 0 1.98 0 3 0 C3 1.32 3 2.64 3 4 C4.19625 4.020625 5.3925 4.04125 6.625 4.0625 C14.40156868 4.87848336 21.45678993 9.43779324 28.16796875 13.22265625 C30.28201925 14.26040017 30.28201925 14.26040017 34 14 C34 14.66 34 15.32 34 16 C33.34 16 32.68 16 32 16 C32.391875 16.78375 32.78375 17.5675 33.1875 18.375 C33.45691406 18.91511719 33.72632812 19.45523438 34.00390625 20.01171875 C34.75769711 21.51634442 35.51636903 23.01852607 36.27734375 24.51953125 C36.72207031 25.39996094 37.16679688 26.28039062 37.625 27.1875 C38.05039063 28.02667969 38.47578125 28.86585937 38.9140625 29.73046875 C40.75353966 33.57484367 41.11212147 36.46967519 41.0625 40.6875 C41.05347656 41.68136719 41.04445313 42.67523438 41.03515625 43.69921875 C41.02355469 44.45847656 41.01195313 45.21773437 41 46 C42.32 46 43.64 46 45 46 C45 46.99 45 47.98 45 49 C43.68 49 42.36 49 41 49 C40.95875 50.258125 40.9175 51.51625 40.875 52.8125 C40.20916265 59.01066236 37.191248 63.76063761 34 69 C33.44054687 69.93328125 32.88109375 70.8665625 32.3046875 71.828125 C31.87414062 72.54484375 31.44359375 73.2615625 31 74 C31.66 74 32.32 74 33 74 C32.505 75.485 32.505 75.485 32 77 C29.50638429 75.79618552 27.31856917 74.54571278 25 73 C25.40523682 70.26465145 26.02243088 68.97292825 27.8125 66.8125 C30.65520805 63.15758965 32.22329103 59.24575054 34 55 C34.495 54.01 34.495 54.01 35 53 C35.6623145 43.70588176 35.7714233 35.29034799 31 27 C30.5875 26.28328125 30.175 25.5665625 29.75 24.828125 C25.98631301 19.13982534 21.0386476 16.00496885 15 13 C13.87464844 12.43925781 13.87464844 12.43925781 12.7265625 11.8671875 C4.04831747 9.10705799 -6.71373198 9.76105456 -14.8125 13.75 C-23.7110029 18.8348588 -28.47082323 24.90698324 -32.375 34.3125 C-34.17255281 44.91806159 -33.73593665 55.28604685 -27.36328125 64.3203125 C-26.30376584 65.65890772 -25.21061551 66.97211869 -24.07421875 68.24609375 C-23 70 -23 70 -23.21484375 72.109375 C-24.28521925 74.68679659 -25.58633578 75.65118764 -28 77 C-28.99 76.67 -29.98 76.34 -31 76 C-30.77828125 75.26265625 -30.5565625 74.5253125 -30.328125 73.765625 C-29.91612246 70.29303216 -30.64062845 69.46204914 -32.75 66.75 C-36.75503935 61.17088704 -39 55.90880327 -39 49 C-40.32 49 -41.64 49 -43 49 C-43 48.01 -43 47.02 -43 46 C-41.68 46 -40.36 46 -39 46 C-39.061875 44.72125 -39.12375 43.4425 -39.1875 42.125 C-39.16229338 34.10929483 -36.95589721 27.89401745 -32.0078125 21.671875 C-30.31577515 18.86492932 -30.67799185 16.1556799 -31 13 C-30.26007812 13.22042969 -29.52015625 13.44085938 -28.7578125 13.66796875 C-26.0249835 14.25968598 -26.0249835 14.25968598 -23.9296875 12.92578125 C-23.25164063 12.39339844 -22.57359375 11.86101563 -21.875 11.3125 C-15.50495922 6.7503172 -8.01834516 3.13315187 0 4 C0 2.68 0 1.36 0 0 Z " fill="#0D0D0D" transform="translate(71,30)"/>
<path d="M0 0 C0.66 0.33 1.32 0.66 2 1 C1.38511719 1.60328125 0.77023438 2.2065625 0.13671875 2.828125 C-0.67152344 3.62734375 -1.47976562 4.4265625 -2.3125 5.25 C-3.11300781 6.03890625 -3.91351563 6.8278125 -4.73828125 7.640625 C-8.71197709 11.78589666 -10.36278462 14.60704008 -11.375 20.1953125 C-12 22 -12 22 -15 24 C-16.4540625 24.4640625 -16.4540625 24.4640625 -17.9375 24.9375 C-20.84186325 25.94513623 -22.6752379 27.03289361 -25 29 C-25.99 28.01 -26.98 27.02 -28 26 C-26.84826645 23.53199953 -25.95216435 21.95216435 -24 20 C-23.67 19.01 -23.34 18.02 -23 17 C-22 14 -22 14 -20 12 C-18.700625 11.835 -17.40125 11.67 -16.0625 11.5 C-9.20282231 10.18169061 -4.72961253 4.79149531 0 0 Z " fill="#101010" transform="translate(89,57)"/>
<path d="M0 0 C1.32 0 2.64 0 4 0 C4.33 1.98 4.66 3.96 5 6 C6.65 4.02 8.3 2.04 10 0 C11.32 0.33 12.64 0.66 14 1 C11.03 4.96 11.03 4.96 8 9 C8.99 10.11375 9.98 11.2275 11 12.375 C14 15.75 14 15.75 14 18 C10.32579134 17.69381595 9.21864487 17.24228216 6.6875 14.4375 C6.130625 13.633125 5.57375 12.82875 5 12 C4.67 13.98 4.34 15.96 4 18 C2.68 18 1.36 18 0 18 C0 12.06 0 6.12 0 0 Z " fill="#1B1B1B" transform="translate(73,98)"/>
<path d="M0 0 C1.32 0 2.64 0 4 0 C4.0809723 2.43816585 4.14046972 4.87364384 4.1875 7.3125 C4.22520508 8.34793945 4.22520508 8.34793945 4.26367188 9.40429688 C4.33725849 14.48177353 4.33725849 14.48177353 2.71875 16.96875 C-0.07830887 18.64698532 -2.83025911 18.1794193 -6 18 C-6.66 16.68 -7.32 15.36 -8 14 C-4 14 -4 14 0 15 C0 10.05 0 5.1 0 0 Z " fill="#1E1F1F" transform="translate(65,98)"/>
<path d="M0 0 C-0.3810518 2.76262553 -0.83597132 3.84143894 -2.875 5.8125 C-3.57625 6.204375 -4.2775 6.59625 -5 7 C-5.99 6.67 -6.98 6.34 -8 6 C-6.98565881 3.46414701 -6.34981128 2.21863205 -4 0.75 C-2 0 -2 0 0 0 Z " fill="#131313" transform="translate(48,100)"/>
</svg>
